# xmcd
#
# Track frame offsets:
#	182
#	14095
#	26550
#	37570
#	52755
#	69132
#	83670
#	95695
#	116920
#	130060
#	146807
#	165427
#	193947
#	203605
#	227712
#	249217
#
# Disc length: 3529
#
# Revision: 1
# Processed by: cddbd v1.5.1PL0 Copyright (c) Steve Scherf et al.
# Submitted via: CDex 1.51
# Normalized: r0:DSETVAR1,TDELIM( - )
#
DISCID=c90dc710
DTITLE=Various Artist - 16 All-time Jazz Sessions vol 10
DYEAR=1988
DGENRE=Jazz
TTITLE0=Benny Goodman - Get happy
TTITLE1=Sarah Vaughan - Prelude tp a Kiss
TTITLE2=Django Reinhard - Exactly like You
TTITLE3=Oscar Peterson - All of Me
TTITLE4=Modern Jazz Quartet - The golden Striker
TTITLE5=Duke Ellington - I'm just a lucky So and So
TTITLE6=George Shearing - All of You
TTITLE7=Miles Davis - Solar
TTITLE8=Charlie Parker - Quasimodo
TTITLE9=Ella Fitzgerald - Blue Skies
TTITLE10=Louis Armstrong - Somebody you'll sorry
TTITLE11=Gene Krupa - 'S wonderful
TTITLE12=Fats Waller - Ain't misbehavin'
TTITLE13=Lionel Hampton - Jazz Star News
TTITLE14=Harry James - Get off the Stand
TTITLE15=Lena Horne - Cuckoo in the Clock
EXTD=YEAR: 1988
EXTT0=
EXTT1=
EXTT2=
EXTT3=
EXTT4=
EXTT5=
EXTT6=
EXTT7=
EXTT8=
EXTT9=
EXTT10=
EXTT11=
EXTT12=
EXTT13=
EXTT14=
EXTT15=
PLAYORDER=
